<?xml version="1.0" encoding="utf-8"?>
<!-- Generator: Adobe Illustrator 24.0.1, SVG Export Plug-In . SVG Version: 6.00 Build 0)  -->
<svg version="1.1" id="Camada_1" xmlns="http://www.w3.org/2000/svg" xmlns:xlink="http://www.w3.org/1999/xlink" x="0px" y="0px"
	 viewBox="0 0 2000 2000" style="enable-background:new 0 0 2000 2000;" xml:space="preserve">
<style type="text/css">
	.st0{fill:none;stroke:#FFFFFF;stroke-width:30;stroke-miterlimit:10;}
</style>
<path class="st0" d="M1550.8,2000H448.5c-247.9,0-448.8-200.9-448.8-448.8V448.8C-0.3,200.9,200.6,0,448.5,0h1102.4
	c247.9,0,448.8,200.9,448.8,448.8v1102.4C1999.7,1799.1,1798.7,2000,1550.8,2000z"/>
<path class="st0" d="M1879.4,1000v492.3c0,214-173.4,387.4-387.4,387.4H507.3c-214,0-387.4-173.4-387.4-387.4V1000H1879.4z"/>
<g>
	<path class="st0" d="M424.8,423.9H315.4v-64.2h294.4v64.2H500.5v379.6h-75.7V423.9z"/>
	<path class="st0" d="M662.7,478c0-71.2,44.5-118.3,134.8-118.3h120.2v64.2h-119c-46.4,0-60.4,21-60.4,59.1v61h160.2v63.6H738.3
		v73.1c0,38.8,14,58.5,60.4,58.5h121.5v49c0,9.5-5.7,15.3-15.3,15.3H797.5c-89.7,0-134.8-47-134.8-117.6V478z"/>
	<path class="st0" d="M988.2,516.1c0-105.6,61.7-164.7,162.8-164.7c43.2,0,83.3,6.4,125.9,19.1l-13.4,61.7
		c-34.3-10.2-68-16.5-103.6-16.5c-64.9,0-94.1,34.3-94.1,107.5v117.6c0,72.5,29.3,106.8,94.1,106.8c40.7,0,68.7-6.4,103.6-15.9
		l13.4,61.1c-38.2,11.4-75.7,19.1-125.9,19.1c-101.1,0-162.8-57.9-162.8-164.1V516.1z"/>
	<path class="st0" d="M1360.9,359.7h75.7v184.4h171.1V359.7h76.3v428.6c0,9.5-6.4,15.3-15.3,15.3h-61V607h-171.1v196.5h-75.7V359.7z
		"/>
</g>
<g>
	<path class="st0" d="M532.6,1217.9h125.9c100.5,0,155.8,66.1,155.8,143.1c0,78.2-55.3,142.4-155.8,142.4h-50.2v158.3h-75.7V1217.9z
		 M656,1439.9c54.7,0,78.8-38.8,78.8-78.8c0-42-24.1-78.8-78.8-78.8h-47.7V1440L656,1439.9L656,1439.9z"/>
	<path class="st0" d="M873.5,1396c0-108.7,64.2-186.3,174.2-186.3s174.2,77.6,174.2,186.3v87.7c0,109.4-64.2,186.3-174.2,186.3
		s-174.2-76.9-174.2-186.3L873.5,1396L873.5,1396z M1047.7,1605.8c75.7,0,96.6-59.8,96.6-129.1V1403c0-68.7-21-129.1-96.6-129.1
		c-75,0-96.7,60.4-96.7,129.1v73.8C951,1546.1,972.7,1605.8,1047.7,1605.8z"/>
	<path class="st0" d="M1380.3,1282.2h-109.4V1218h294.4v64.2h-109.4v379.6h-75.7L1380.3,1282.2L1380.3,1282.2z"/>
</g>
</svg>
